<mxfile host="app.diagrams.net" modified="2021-05-14T08:46:26.424Z" agent="5.0 (Macintosh; Intel Mac OS X 10_15_6) AppleWebKit/605.1.15 (KHTML, like Gecko) Version/13.1.2 Safari/605.1.15" etag="8wqQIWocHTkKnez6ptF6" version="14.6.13" type="github">
  <diagram id="z8FlqOOcnNm6cwyUdIHa" name="Page-1">
    <mxGraphModel dx="2066" dy="1164" grid="1" gridSize="10" guides="1" tooltips="1" connect="1" arrows="1" fold="1" page="1" pageScale="1" pageWidth="827" pageHeight="1169" math="0" shadow="0">
      <root>
        <mxCell id="0" />
        <mxCell id="1" parent="0" />
        <mxCell id="Dk2-vB2BnpKcqhBYg7d8-1" value="初始化下单数据" style="rounded=0;whiteSpace=wrap;html=1;fillColor=#f5f5f5;strokeColor=#666666;fontColor=#333333;" vertex="1" parent="1">
          <mxGeometry x="280" y="50" width="130" height="60" as="geometry" />
        </mxCell>
        <mxCell id="Dk2-vB2BnpKcqhBYg7d8-6" value="" style="edgeStyle=orthogonalEdgeStyle;rounded=0;orthogonalLoop=1;jettySize=auto;html=1;" edge="1" parent="1" source="Dk2-vB2BnpKcqhBYg7d8-2" target="Dk2-vB2BnpKcqhBYg7d8-3">
          <mxGeometry relative="1" as="geometry" />
        </mxCell>
        <mxCell id="Dk2-vB2BnpKcqhBYg7d8-2" value="是否设置&lt;br&gt;全局时间" style="rhombus;whiteSpace=wrap;html=1;" vertex="1" parent="1">
          <mxGeometry x="300.5" y="150" width="80" height="110" as="geometry" />
        </mxCell>
        <mxCell id="Dk2-vB2BnpKcqhBYg7d8-3" value="上页是否传入&lt;br&gt;默认时间" style="rhombus;whiteSpace=wrap;html=1;" vertex="1" parent="1">
          <mxGeometry x="290" y="290" width="100" height="100" as="geometry" />
        </mxCell>
        <mxCell id="Dk2-vB2BnpKcqhBYg7d8-5" value="" style="endArrow=classic;html=1;" edge="1" parent="1">
          <mxGeometry width="50" height="50" relative="1" as="geometry">
            <mxPoint x="340" y="110" as="sourcePoint" />
            <mxPoint x="340" y="150" as="targetPoint" />
          </mxGeometry>
        </mxCell>
        <mxCell id="Dk2-vB2BnpKcqhBYg7d8-8" value="否" style="text;html=1;strokeColor=none;fillColor=none;align=center;verticalAlign=middle;whiteSpace=wrap;rounded=0;" vertex="1" parent="1">
          <mxGeometry x="340.5" y="260" width="40" height="20" as="geometry" />
        </mxCell>
        <mxCell id="Dk2-vB2BnpKcqhBYg7d8-9" value="是" style="text;html=1;strokeColor=none;fillColor=none;align=center;verticalAlign=middle;whiteSpace=wrap;rounded=0;" vertex="1" parent="1">
          <mxGeometry x="390" y="180" width="40" height="20" as="geometry" />
        </mxCell>
        <mxCell id="Dk2-vB2BnpKcqhBYg7d8-12" value="否" style="text;html=1;strokeColor=none;fillColor=none;align=center;verticalAlign=middle;whiteSpace=wrap;rounded=0;" vertex="1" parent="1">
          <mxGeometry x="340.5" y="390" width="40" height="20" as="geometry" />
        </mxCell>
        <mxCell id="Dk2-vB2BnpKcqhBYg7d8-14" value="" style="endArrow=classic;html=1;exitX=1;exitY=0.5;exitDx=0;exitDy=0;" edge="1" parent="1" source="Dk2-vB2BnpKcqhBYg7d8-3">
          <mxGeometry width="50" height="50" relative="1" as="geometry">
            <mxPoint x="640" y="560" as="sourcePoint" />
            <mxPoint x="450" y="340" as="targetPoint" />
          </mxGeometry>
        </mxCell>
        <mxCell id="Dk2-vB2BnpKcqhBYg7d8-15" value="" style="endArrow=classic;html=1;exitX=0;exitY=0;exitDx=0;exitDy=0;" edge="1" parent="1" source="Dk2-vB2BnpKcqhBYg7d8-12">
          <mxGeometry width="50" height="50" relative="1" as="geometry">
            <mxPoint x="640" y="560" as="sourcePoint" />
            <mxPoint x="341" y="520" as="targetPoint" />
            <Array as="points">
              <mxPoint x="341" y="460" />
            </Array>
          </mxGeometry>
        </mxCell>
        <mxCell id="Dk2-vB2BnpKcqhBYg7d8-16" value="" style="endArrow=classic;html=1;exitX=1;exitY=0.5;exitDx=0;exitDy=0;" edge="1" parent="1" source="Dk2-vB2BnpKcqhBYg7d8-2">
          <mxGeometry width="50" height="50" relative="1" as="geometry">
            <mxPoint x="640" y="560" as="sourcePoint" />
            <mxPoint x="450" y="205" as="targetPoint" />
          </mxGeometry>
        </mxCell>
        <mxCell id="Dk2-vB2BnpKcqhBYg7d8-18" value="日历控件赋值全局时间" style="rounded=0;whiteSpace=wrap;html=1;" vertex="1" parent="1">
          <mxGeometry x="449" y="175" width="120" height="60" as="geometry" />
        </mxCell>
        <mxCell id="Dk2-vB2BnpKcqhBYg7d8-19" value="&lt;span&gt;日历控件赋值默认时间&lt;/span&gt;" style="rounded=0;whiteSpace=wrap;html=1;" vertex="1" parent="1">
          <mxGeometry x="449" y="310" width="120" height="60" as="geometry" />
        </mxCell>
        <mxCell id="Dk2-vB2BnpKcqhBYg7d8-20" value="是" style="text;html=1;strokeColor=none;fillColor=none;align=center;verticalAlign=middle;whiteSpace=wrap;rounded=0;" vertex="1" parent="1">
          <mxGeometry x="394" y="312" width="40" height="20" as="geometry" />
        </mxCell>
        <mxCell id="Dk2-vB2BnpKcqhBYg7d8-21" value="" style="endArrow=classic;html=1;exitX=1;exitY=0.5;exitDx=0;exitDy=0;" edge="1" parent="1" source="Dk2-vB2BnpKcqhBYg7d8-18">
          <mxGeometry width="50" height="50" relative="1" as="geometry">
            <mxPoint x="640" y="560" as="sourcePoint" />
            <mxPoint x="670" y="450" as="targetPoint" />
            <Array as="points">
              <mxPoint x="670" y="205" />
            </Array>
          </mxGeometry>
        </mxCell>
        <mxCell id="Dk2-vB2BnpKcqhBYg7d8-22" value="" style="endArrow=classic;html=1;exitX=1;exitY=0.5;exitDx=0;exitDy=0;" edge="1" parent="1" source="Dk2-vB2BnpKcqhBYg7d8-19">
          <mxGeometry width="50" height="50" relative="1" as="geometry">
            <mxPoint x="640" y="560" as="sourcePoint" />
            <mxPoint x="670" y="340" as="targetPoint" />
          </mxGeometry>
        </mxCell>
        <mxCell id="Dk2-vB2BnpKcqhBYg7d8-23" value="" style="rhombus;whiteSpace=wrap;html=1;" vertex="1" parent="1">
          <mxGeometry x="300.5" y="520" width="90" height="100" as="geometry" />
        </mxCell>
      </root>
    </mxGraphModel>
  </diagram>
</mxfile>
